<mxfile host="app.diagrams.net" modified="2023-09-27T19:20:40.362Z" agent="Mozilla/5.0 (Macintosh; Intel Mac OS X 10_15_7) AppleWebKit/537.36 (KHTML, like Gecko) Chrome/116.0.0.0 Safari/537.36" etag="dnERdeUKpDx0M3kSw2qo" version="21.8.2" type="device">
  <diagram name="Page-1" id="w8GlXfYzJOIcGCaT5u2c">
    <mxGraphModel dx="1909" dy="581" grid="1" gridSize="10" guides="1" tooltips="1" connect="1" arrows="1" fold="1" page="1" pageScale="1" pageWidth="850" pageHeight="1100" math="0" shadow="0">
      <root>
        <mxCell id="0" />
        <mxCell id="1" parent="0" />
        <mxCell id="3bPheQjJl3Zlm8qA290g-25" value="" style="edgeStyle=orthogonalEdgeStyle;rounded=0;orthogonalLoop=1;jettySize=auto;html=1;" edge="1" parent="1" source="3bPheQjJl3Zlm8qA290g-8" target="3bPheQjJl3Zlm8qA290g-24">
          <mxGeometry relative="1" as="geometry" />
        </mxCell>
        <mxCell id="3bPheQjJl3Zlm8qA290g-8" value="AddressBook" style="swimlane;fontStyle=0;childLayout=stackLayout;horizontal=1;startSize=30;horizontalStack=0;resizeParent=1;resizeParentMax=0;resizeLast=0;collapsible=1;marginBottom=0;whiteSpace=wrap;html=1;" vertex="1" parent="1">
          <mxGeometry x="10" y="250" width="120" height="360" as="geometry">
            <mxRectangle x="190" y="40" width="110" height="30" as="alternateBounds" />
          </mxGeometry>
        </mxCell>
        <mxCell id="3bPheQjJl3Zlm8qA290g-9" value="+&amp;nbsp;add_record(record)" style="text;strokeColor=none;fillColor=none;align=left;verticalAlign=middle;spacingLeft=4;spacingRight=4;overflow=hidden;points=[[0,0.5],[1,0.5]];portConstraint=eastwest;rotatable=0;whiteSpace=wrap;html=1;" vertex="1" parent="3bPheQjJl3Zlm8qA290g-8">
          <mxGeometry y="30" width="120" height="30" as="geometry" />
        </mxCell>
        <mxCell id="3bPheQjJl3Zlm8qA290g-10" value="+&amp;nbsp;del_phone()" style="text;strokeColor=none;fillColor=none;align=left;verticalAlign=middle;spacingLeft=4;spacingRight=4;overflow=hidden;points=[[0,0.5],[1,0.5]];portConstraint=eastwest;rotatable=0;whiteSpace=wrap;html=1;" vertex="1" parent="3bPheQjJl3Zlm8qA290g-8">
          <mxGeometry y="60" width="120" height="30" as="geometry" />
        </mxCell>
        <mxCell id="3bPheQjJl3Zlm8qA290g-11" value="+&amp;nbsp;show_phones" style="text;strokeColor=none;fillColor=none;align=left;verticalAlign=middle;spacingLeft=4;spacingRight=4;overflow=hidden;points=[[0,0.5],[1,0.5]];portConstraint=eastwest;rotatable=0;whiteSpace=wrap;html=1;" vertex="1" parent="3bPheQjJl3Zlm8qA290g-8">
          <mxGeometry y="90" width="120" height="30" as="geometry" />
        </mxCell>
        <mxCell id="3bPheQjJl3Zlm8qA290g-12" value="+&amp;nbsp;search_in" style="text;strokeColor=none;fillColor=none;align=left;verticalAlign=middle;spacingLeft=4;spacingRight=4;overflow=hidden;points=[[0,0.5],[1,0.5]];portConstraint=eastwest;rotatable=0;whiteSpace=wrap;html=1;" vertex="1" parent="3bPheQjJl3Zlm8qA290g-8">
          <mxGeometry y="120" width="120" height="30" as="geometry" />
        </mxCell>
        <mxCell id="3bPheQjJl3Zlm8qA290g-13" value="+&amp;nbsp;add_contact" style="text;strokeColor=none;fillColor=none;align=left;verticalAlign=middle;spacingLeft=4;spacingRight=4;overflow=hidden;points=[[0,0.5],[1,0.5]];portConstraint=eastwest;rotatable=0;whiteSpace=wrap;html=1;" vertex="1" parent="3bPheQjJl3Zlm8qA290g-8">
          <mxGeometry y="150" width="120" height="30" as="geometry" />
        </mxCell>
        <mxCell id="3bPheQjJl3Zlm8qA290g-14" value="+&amp;nbsp;delete_contact" style="text;strokeColor=none;fillColor=none;align=left;verticalAlign=middle;spacingLeft=4;spacingRight=4;overflow=hidden;points=[[0,0.5],[1,0.5]];portConstraint=eastwest;rotatable=0;whiteSpace=wrap;html=1;" vertex="1" parent="3bPheQjJl3Zlm8qA290g-8">
          <mxGeometry y="180" width="120" height="30" as="geometry" />
        </mxCell>
        <mxCell id="3bPheQjJl3Zlm8qA290g-15" value="+&amp;nbsp;edit_contact" style="text;strokeColor=none;fillColor=none;align=left;verticalAlign=middle;spacingLeft=4;spacingRight=4;overflow=hidden;points=[[0,0.5],[1,0.5]];portConstraint=eastwest;rotatable=0;whiteSpace=wrap;html=1;" vertex="1" parent="3bPheQjJl3Zlm8qA290g-8">
          <mxGeometry y="210" width="120" height="30" as="geometry" />
        </mxCell>
        <mxCell id="3bPheQjJl3Zlm8qA290g-19" value="+&amp;nbsp;birthday_in_days" style="text;strokeColor=none;fillColor=none;align=left;verticalAlign=middle;spacingLeft=4;spacingRight=4;overflow=hidden;points=[[0,0.5],[1,0.5]];portConstraint=eastwest;rotatable=0;whiteSpace=wrap;html=1;" vertex="1" parent="3bPheQjJl3Zlm8qA290g-8">
          <mxGeometry y="240" width="120" height="30" as="geometry" />
        </mxCell>
        <mxCell id="3bPheQjJl3Zlm8qA290g-18" value="+&amp;nbsp;show_all_cont" style="text;strokeColor=none;fillColor=none;align=left;verticalAlign=middle;spacingLeft=4;spacingRight=4;overflow=hidden;points=[[0,0.5],[1,0.5]];portConstraint=eastwest;rotatable=0;whiteSpace=wrap;html=1;" vertex="1" parent="3bPheQjJl3Zlm8qA290g-8">
          <mxGeometry y="270" width="120" height="30" as="geometry" />
        </mxCell>
        <mxCell id="3bPheQjJl3Zlm8qA290g-17" value="+&amp;nbsp;birthday_in_days" style="text;strokeColor=none;fillColor=none;align=left;verticalAlign=middle;spacingLeft=4;spacingRight=4;overflow=hidden;points=[[0,0.5],[1,0.5]];portConstraint=eastwest;rotatable=0;whiteSpace=wrap;html=1;" vertex="1" parent="3bPheQjJl3Zlm8qA290g-8">
          <mxGeometry y="300" width="120" height="30" as="geometry" />
        </mxCell>
        <mxCell id="3bPheQjJl3Zlm8qA290g-16" value="+&amp;nbsp;birthday_in_days" style="text;strokeColor=none;fillColor=none;align=left;verticalAlign=middle;spacingLeft=4;spacingRight=4;overflow=hidden;points=[[0,0.5],[1,0.5]];portConstraint=eastwest;rotatable=0;whiteSpace=wrap;html=1;" vertex="1" parent="3bPheQjJl3Zlm8qA290g-8">
          <mxGeometry y="330" width="120" height="30" as="geometry" />
        </mxCell>
        <mxCell id="3bPheQjJl3Zlm8qA290g-20" value="Field" style="swimlane;fontStyle=0;childLayout=stackLayout;horizontal=1;startSize=30;horizontalStack=0;resizeParent=1;resizeParentMax=0;resizeLast=0;collapsible=1;marginBottom=0;whiteSpace=wrap;html=1;" vertex="1" parent="1">
          <mxGeometry x="-355" y="20" width="140" height="60" as="geometry" />
        </mxCell>
        <mxCell id="3bPheQjJl3Zlm8qA290g-21" value="- value" style="text;strokeColor=none;fillColor=none;align=left;verticalAlign=middle;spacingLeft=4;spacingRight=4;overflow=hidden;points=[[0,0.5],[1,0.5]];portConstraint=eastwest;rotatable=0;whiteSpace=wrap;html=1;" vertex="1" parent="3bPheQjJl3Zlm8qA290g-20">
          <mxGeometry y="30" width="140" height="30" as="geometry" />
        </mxCell>
        <mxCell id="3bPheQjJl3Zlm8qA290g-24" value="UserDict" style="rounded=0;whiteSpace=wrap;html=1;" vertex="1" parent="1">
          <mxGeometry x="70" y="140" width="80" height="30" as="geometry" />
        </mxCell>
        <mxCell id="3bPheQjJl3Zlm8qA290g-26" value="Name" style="swimlane;fontStyle=0;childLayout=stackLayout;horizontal=1;startSize=30;horizontalStack=0;resizeParent=1;resizeParentMax=0;resizeLast=0;collapsible=1;marginBottom=0;whiteSpace=wrap;html=1;" vertex="1" parent="1">
          <mxGeometry x="-480" y="140" width="60" height="60" as="geometry" />
        </mxCell>
        <mxCell id="3bPheQjJl3Zlm8qA290g-31" value="Address" style="swimlane;fontStyle=0;childLayout=stackLayout;horizontal=1;startSize=30;horizontalStack=0;resizeParent=1;resizeParentMax=0;resizeLast=0;collapsible=1;marginBottom=0;whiteSpace=wrap;html=1;" vertex="1" parent="1">
          <mxGeometry x="-410" y="140" width="70" height="60" as="geometry" />
        </mxCell>
        <mxCell id="3bPheQjJl3Zlm8qA290g-36" value="Phone" style="swimlane;fontStyle=0;childLayout=stackLayout;horizontal=1;startSize=30;horizontalStack=0;resizeParent=1;resizeParentMax=0;resizeLast=0;collapsible=1;marginBottom=0;whiteSpace=wrap;html=1;" vertex="1" parent="1">
          <mxGeometry x="-330" y="140" width="90" height="60" as="geometry" />
        </mxCell>
        <mxCell id="3bPheQjJl3Zlm8qA290g-37" value="-&amp;nbsp;value: str" style="text;strokeColor=none;fillColor=none;align=left;verticalAlign=middle;spacingLeft=4;spacingRight=4;overflow=hidden;points=[[0,0.5],[1,0.5]];portConstraint=eastwest;rotatable=0;whiteSpace=wrap;html=1;" vertex="1" parent="3bPheQjJl3Zlm8qA290g-36">
          <mxGeometry y="30" width="90" height="30" as="geometry" />
        </mxCell>
        <mxCell id="3bPheQjJl3Zlm8qA290g-43" value="Birthday" style="swimlane;fontStyle=0;childLayout=stackLayout;horizontal=1;startSize=30;horizontalStack=0;resizeParent=1;resizeParentMax=0;resizeLast=0;collapsible=1;marginBottom=0;whiteSpace=wrap;html=1;" vertex="1" parent="1">
          <mxGeometry x="-230" y="140" width="70" height="60" as="geometry" />
        </mxCell>
        <mxCell id="3bPheQjJl3Zlm8qA290g-44" value="- value" style="text;strokeColor=none;fillColor=none;align=left;verticalAlign=middle;spacingLeft=4;spacingRight=4;overflow=hidden;points=[[0,0.5],[1,0.5]];portConstraint=eastwest;rotatable=0;whiteSpace=wrap;html=1;" vertex="1" parent="3bPheQjJl3Zlm8qA290g-43">
          <mxGeometry y="30" width="70" height="30" as="geometry" />
        </mxCell>
        <mxCell id="3bPheQjJl3Zlm8qA290g-50" value="Email" style="swimlane;fontStyle=0;childLayout=stackLayout;horizontal=1;startSize=30;horizontalStack=0;resizeParent=1;resizeParentMax=0;resizeLast=0;collapsible=1;marginBottom=0;whiteSpace=wrap;html=1;" vertex="1" parent="1">
          <mxGeometry x="-140" y="140" width="70" height="60" as="geometry" />
        </mxCell>
        <mxCell id="3bPheQjJl3Zlm8qA290g-51" value="-&amp;nbsp;value: str" style="text;strokeColor=none;fillColor=none;align=left;verticalAlign=middle;spacingLeft=4;spacingRight=4;overflow=hidden;points=[[0,0.5],[1,0.5]];portConstraint=eastwest;rotatable=0;whiteSpace=wrap;html=1;" vertex="1" parent="3bPheQjJl3Zlm8qA290g-50">
          <mxGeometry y="30" width="70" height="30" as="geometry" />
        </mxCell>
        <mxCell id="3bPheQjJl3Zlm8qA290g-55" style="edgeStyle=orthogonalEdgeStyle;rounded=0;orthogonalLoop=1;jettySize=auto;html=1;entryX=0.499;entryY=0.962;entryDx=0;entryDy=0;entryPerimeter=0;" edge="1" parent="1" source="3bPheQjJl3Zlm8qA290g-26" target="3bPheQjJl3Zlm8qA290g-21">
          <mxGeometry relative="1" as="geometry">
            <Array as="points">
              <mxPoint x="-450" y="110" />
              <mxPoint x="-285" y="110" />
              <mxPoint x="-285" y="81" />
            </Array>
          </mxGeometry>
        </mxCell>
        <mxCell id="3bPheQjJl3Zlm8qA290g-57" value="" style="endArrow=none;html=1;rounded=0;" edge="1" parent="1">
          <mxGeometry width="50" height="50" relative="1" as="geometry">
            <mxPoint x="-380" y="140" as="sourcePoint" />
            <mxPoint x="-380" y="110" as="targetPoint" />
          </mxGeometry>
        </mxCell>
        <mxCell id="3bPheQjJl3Zlm8qA290g-58" value="" style="endArrow=none;html=1;rounded=0;" edge="1" parent="1">
          <mxGeometry width="50" height="50" relative="1" as="geometry">
            <mxPoint x="-285.34000000000003" y="140" as="sourcePoint" />
            <mxPoint x="-285.34000000000003" y="110" as="targetPoint" />
          </mxGeometry>
        </mxCell>
        <mxCell id="3bPheQjJl3Zlm8qA290g-60" value="" style="endArrow=none;html=1;rounded=0;" edge="1" parent="1">
          <mxGeometry width="50" height="50" relative="1" as="geometry">
            <mxPoint x="-210" y="140" as="sourcePoint" />
            <mxPoint x="-210" y="110" as="targetPoint" />
          </mxGeometry>
        </mxCell>
        <mxCell id="3bPheQjJl3Zlm8qA290g-63" value="" style="endArrow=none;html=1;rounded=0;" edge="1" parent="1">
          <mxGeometry width="50" height="50" relative="1" as="geometry">
            <mxPoint x="-290" y="110" as="sourcePoint" />
            <mxPoint x="-130" y="110" as="targetPoint" />
          </mxGeometry>
        </mxCell>
        <mxCell id="3bPheQjJl3Zlm8qA290g-64" value="" style="endArrow=none;html=1;rounded=0;" edge="1" parent="1">
          <mxGeometry width="50" height="50" relative="1" as="geometry">
            <mxPoint x="-130" y="140" as="sourcePoint" />
            <mxPoint x="-130" y="110" as="targetPoint" />
          </mxGeometry>
        </mxCell>
        <mxCell id="3bPheQjJl3Zlm8qA290g-65" value="Record" style="swimlane;fontStyle=0;childLayout=stackLayout;horizontal=1;startSize=30;horizontalStack=0;resizeParent=1;resizeParentMax=0;resizeLast=0;collapsible=1;marginBottom=0;whiteSpace=wrap;html=1;" vertex="1" parent="1">
          <mxGeometry x="-355" y="250" width="180" height="540" as="geometry" />
        </mxCell>
        <mxCell id="3bPheQjJl3Zlm8qA290g-66" value="+ name: Name" style="text;strokeColor=none;fillColor=none;align=left;verticalAlign=middle;spacingLeft=4;spacingRight=4;overflow=hidden;points=[[0,0.5],[1,0.5]];portConstraint=eastwest;rotatable=0;whiteSpace=wrap;html=1;" vertex="1" parent="3bPheQjJl3Zlm8qA290g-65">
          <mxGeometry y="30" width="180" height="30" as="geometry" />
        </mxCell>
        <mxCell id="3bPheQjJl3Zlm8qA290g-67" value="+ phone: Phone" style="text;strokeColor=none;fillColor=none;align=left;verticalAlign=middle;spacingLeft=4;spacingRight=4;overflow=hidden;points=[[0,0.5],[1,0.5]];portConstraint=eastwest;rotatable=0;whiteSpace=wrap;html=1;" vertex="1" parent="3bPheQjJl3Zlm8qA290g-65">
          <mxGeometry y="60" width="180" height="30" as="geometry" />
        </mxCell>
        <mxCell id="3bPheQjJl3Zlm8qA290g-68" value="+ birthday: Birthday&amp;nbsp;" style="text;strokeColor=none;fillColor=none;align=left;verticalAlign=middle;spacingLeft=4;spacingRight=4;overflow=hidden;points=[[0,0.5],[1,0.5]];portConstraint=eastwest;rotatable=0;whiteSpace=wrap;html=1;" vertex="1" parent="3bPheQjJl3Zlm8qA290g-65">
          <mxGeometry y="90" width="180" height="30" as="geometry" />
        </mxCell>
        <mxCell id="3bPheQjJl3Zlm8qA290g-69" value="+ email: Email&amp;nbsp;" style="text;strokeColor=none;fillColor=none;align=left;verticalAlign=middle;spacingLeft=4;spacingRight=4;overflow=hidden;points=[[0,0.5],[1,0.5]];portConstraint=eastwest;rotatable=0;whiteSpace=wrap;html=1;" vertex="1" parent="3bPheQjJl3Zlm8qA290g-65">
          <mxGeometry y="120" width="180" height="30" as="geometry" />
        </mxCell>
        <mxCell id="3bPheQjJl3Zlm8qA290g-70" value="+ address: Address" style="text;strokeColor=none;fillColor=none;align=left;verticalAlign=middle;spacingLeft=4;spacingRight=4;overflow=hidden;points=[[0,0.5],[1,0.5]];portConstraint=eastwest;rotatable=0;whiteSpace=wrap;html=1;" vertex="1" parent="3bPheQjJl3Zlm8qA290g-65">
          <mxGeometry y="150" width="180" height="30" as="geometry" />
        </mxCell>
        <mxCell id="3bPheQjJl3Zlm8qA290g-79" value="" style="endArrow=none;html=1;rounded=0;exitX=0.002;exitY=-0.033;exitDx=0;exitDy=0;exitPerimeter=0;entryX=0.997;entryY=0.955;entryDx=0;entryDy=0;entryPerimeter=0;" edge="1" parent="3bPheQjJl3Zlm8qA290g-65" source="3bPheQjJl3Zlm8qA290g-73" target="3bPheQjJl3Zlm8qA290g-70">
          <mxGeometry width="50" height="50" relative="1" as="geometry">
            <mxPoint x="40" y="179.32999999999998" as="sourcePoint" />
            <mxPoint x="140" y="179" as="targetPoint" />
          </mxGeometry>
        </mxCell>
        <mxCell id="3bPheQjJl3Zlm8qA290g-73" value="+&amp;nbsp;add_phone(Phone)" style="text;strokeColor=none;fillColor=none;align=left;verticalAlign=middle;spacingLeft=4;spacingRight=4;overflow=hidden;points=[[0,0.5],[1,0.5]];portConstraint=eastwest;rotatable=0;whiteSpace=wrap;html=1;" vertex="1" parent="3bPheQjJl3Zlm8qA290g-65">
          <mxGeometry y="180" width="180" height="30" as="geometry" />
        </mxCell>
        <mxCell id="3bPheQjJl3Zlm8qA290g-74" value="+ add_birthday(Birthday)" style="text;strokeColor=none;fillColor=none;align=left;verticalAlign=middle;spacingLeft=4;spacingRight=4;overflow=hidden;points=[[0,0.5],[1,0.5]];portConstraint=eastwest;rotatable=0;whiteSpace=wrap;html=1;" vertex="1" parent="3bPheQjJl3Zlm8qA290g-65">
          <mxGeometry y="210" width="180" height="30" as="geometry" />
        </mxCell>
        <mxCell id="3bPheQjJl3Zlm8qA290g-77" value="+&amp;nbsp;add_mail(Email)" style="text;strokeColor=none;fillColor=none;align=left;verticalAlign=middle;spacingLeft=4;spacingRight=4;overflow=hidden;points=[[0,0.5],[1,0.5]];portConstraint=eastwest;rotatable=0;whiteSpace=wrap;html=1;" vertex="1" parent="3bPheQjJl3Zlm8qA290g-65">
          <mxGeometry y="240" width="180" height="30" as="geometry" />
        </mxCell>
        <mxCell id="3bPheQjJl3Zlm8qA290g-76" value="+&amp;nbsp;add_address(Address)" style="text;strokeColor=none;fillColor=none;align=left;verticalAlign=middle;spacingLeft=4;spacingRight=4;overflow=hidden;points=[[0,0.5],[1,0.5]];portConstraint=eastwest;rotatable=0;whiteSpace=wrap;html=1;" vertex="1" parent="3bPheQjJl3Zlm8qA290g-65">
          <mxGeometry y="270" width="180" height="30" as="geometry" />
        </mxCell>
        <mxCell id="3bPheQjJl3Zlm8qA290g-78" value="+ show_birthday()" style="text;strokeColor=none;fillColor=none;align=left;verticalAlign=middle;spacingLeft=4;spacingRight=4;overflow=hidden;points=[[0,0.5],[1,0.5]];portConstraint=eastwest;rotatable=0;whiteSpace=wrap;html=1;" vertex="1" parent="3bPheQjJl3Zlm8qA290g-65">
          <mxGeometry y="300" width="180" height="30" as="geometry" />
        </mxCell>
        <mxCell id="3bPheQjJl3Zlm8qA290g-75" value="+ show_email()" style="text;strokeColor=none;fillColor=none;align=left;verticalAlign=middle;spacingLeft=4;spacingRight=4;overflow=hidden;points=[[0,0.5],[1,0.5]];portConstraint=eastwest;rotatable=0;whiteSpace=wrap;html=1;" vertex="1" parent="3bPheQjJl3Zlm8qA290g-65">
          <mxGeometry y="330" width="180" height="30" as="geometry" />
        </mxCell>
        <mxCell id="3bPheQjJl3Zlm8qA290g-81" value="+&amp;nbsp;change_phone(Phone)" style="text;strokeColor=none;fillColor=none;align=left;verticalAlign=middle;spacingLeft=4;spacingRight=4;overflow=hidden;points=[[0,0.5],[1,0.5]];portConstraint=eastwest;rotatable=0;whiteSpace=wrap;html=1;" vertex="1" parent="3bPheQjJl3Zlm8qA290g-65">
          <mxGeometry y="360" width="180" height="30" as="geometry" />
        </mxCell>
        <mxCell id="3bPheQjJl3Zlm8qA290g-80" value="+&amp;nbsp;change_birthday_in(Birthday)" style="text;strokeColor=none;fillColor=none;align=left;verticalAlign=middle;spacingLeft=4;spacingRight=4;overflow=hidden;points=[[0,0.5],[1,0.5]];portConstraint=eastwest;rotatable=0;whiteSpace=wrap;html=1;" vertex="1" parent="3bPheQjJl3Zlm8qA290g-65">
          <mxGeometry y="390" width="180" height="30" as="geometry" />
        </mxCell>
        <mxCell id="3bPheQjJl3Zlm8qA290g-82" value="+&amp;nbsp;change_email_iner(Email)" style="text;strokeColor=none;fillColor=none;align=left;verticalAlign=middle;spacingLeft=4;spacingRight=4;overflow=hidden;points=[[0,0.5],[1,0.5]];portConstraint=eastwest;rotatable=0;whiteSpace=wrap;html=1;" vertex="1" parent="3bPheQjJl3Zlm8qA290g-65">
          <mxGeometry y="420" width="180" height="30" as="geometry" />
        </mxCell>
        <mxCell id="3bPheQjJl3Zlm8qA290g-83" value="+&amp;nbsp;change_address_iner(Address)" style="text;strokeColor=none;fillColor=none;align=left;verticalAlign=middle;spacingLeft=4;spacingRight=4;overflow=hidden;points=[[0,0.5],[1,0.5]];portConstraint=eastwest;rotatable=0;whiteSpace=wrap;html=1;" vertex="1" parent="3bPheQjJl3Zlm8qA290g-65">
          <mxGeometry y="450" width="180" height="30" as="geometry" />
        </mxCell>
        <mxCell id="3bPheQjJl3Zlm8qA290g-85" value="+&amp;nbsp;delete_phone()" style="text;strokeColor=none;fillColor=none;align=left;verticalAlign=middle;spacingLeft=4;spacingRight=4;overflow=hidden;points=[[0,0.5],[1,0.5]];portConstraint=eastwest;rotatable=0;whiteSpace=wrap;html=1;" vertex="1" parent="3bPheQjJl3Zlm8qA290g-65">
          <mxGeometry y="480" width="180" height="30" as="geometry" />
        </mxCell>
        <mxCell id="3bPheQjJl3Zlm8qA290g-84" value="+&amp;nbsp;days_to_birthday()" style="text;strokeColor=none;fillColor=none;align=left;verticalAlign=middle;spacingLeft=4;spacingRight=4;overflow=hidden;points=[[0,0.5],[1,0.5]];portConstraint=eastwest;rotatable=0;whiteSpace=wrap;html=1;" vertex="1" parent="3bPheQjJl3Zlm8qA290g-65">
          <mxGeometry y="510" width="180" height="30" as="geometry" />
        </mxCell>
        <mxCell id="3bPheQjJl3Zlm8qA290g-86" style="edgeStyle=orthogonalEdgeStyle;rounded=0;orthogonalLoop=1;jettySize=auto;html=1;entryX=0.394;entryY=-0.002;entryDx=0;entryDy=0;entryPerimeter=0;" edge="1" parent="1" source="3bPheQjJl3Zlm8qA290g-36" target="3bPheQjJl3Zlm8qA290g-65">
          <mxGeometry relative="1" as="geometry" />
        </mxCell>
        <mxCell id="3bPheQjJl3Zlm8qA290g-87" value="" style="endArrow=none;html=1;rounded=0;" edge="1" parent="1">
          <mxGeometry width="50" height="50" relative="1" as="geometry">
            <mxPoint x="-460" y="230" as="sourcePoint" />
            <mxPoint x="-110" y="230" as="targetPoint" />
          </mxGeometry>
        </mxCell>
        <mxCell id="3bPheQjJl3Zlm8qA290g-88" value="" style="endArrow=none;html=1;rounded=0;" edge="1" parent="1">
          <mxGeometry width="50" height="50" relative="1" as="geometry">
            <mxPoint x="-460" y="230" as="sourcePoint" />
            <mxPoint x="-460" y="200" as="targetPoint" />
          </mxGeometry>
        </mxCell>
        <mxCell id="3bPheQjJl3Zlm8qA290g-89" value="" style="endArrow=none;html=1;rounded=0;" edge="1" parent="1">
          <mxGeometry width="50" height="50" relative="1" as="geometry">
            <mxPoint x="-375.11" y="230" as="sourcePoint" />
            <mxPoint x="-375.11" y="200" as="targetPoint" />
          </mxGeometry>
        </mxCell>
        <mxCell id="3bPheQjJl3Zlm8qA290g-90" value="" style="endArrow=none;html=1;rounded=0;" edge="1" parent="1">
          <mxGeometry width="50" height="50" relative="1" as="geometry">
            <mxPoint x="-200" y="230" as="sourcePoint" />
            <mxPoint x="-200" y="200" as="targetPoint" />
          </mxGeometry>
        </mxCell>
        <mxCell id="3bPheQjJl3Zlm8qA290g-91" value="" style="endArrow=none;html=1;rounded=0;" edge="1" parent="1">
          <mxGeometry width="50" height="50" relative="1" as="geometry">
            <mxPoint x="-110" y="230" as="sourcePoint" />
            <mxPoint x="-110" y="200" as="targetPoint" />
          </mxGeometry>
        </mxCell>
        <mxCell id="3bPheQjJl3Zlm8qA290g-93" style="edgeStyle=orthogonalEdgeStyle;rounded=0;orthogonalLoop=1;jettySize=auto;html=1;entryX=0;entryY=0.5;entryDx=0;entryDy=0;" edge="1" parent="1" source="3bPheQjJl3Zlm8qA290g-73" target="3bPheQjJl3Zlm8qA290g-14">
          <mxGeometry relative="1" as="geometry" />
        </mxCell>
        <mxCell id="3bPheQjJl3Zlm8qA290g-94" value="Notes" style="swimlane;fontStyle=0;childLayout=stackLayout;horizontal=1;startSize=30;horizontalStack=0;resizeParent=1;resizeParentMax=0;resizeLast=0;collapsible=1;marginBottom=0;whiteSpace=wrap;html=1;" vertex="1" parent="1">
          <mxGeometry x="160" y="250" width="140" height="240" as="geometry" />
        </mxCell>
        <mxCell id="3bPheQjJl3Zlm8qA290g-95" value="+&amp;nbsp;add_note()" style="text;strokeColor=none;fillColor=none;align=left;verticalAlign=middle;spacingLeft=4;spacingRight=4;overflow=hidden;points=[[0,0.5],[1,0.5]];portConstraint=eastwest;rotatable=0;whiteSpace=wrap;html=1;" vertex="1" parent="3bPheQjJl3Zlm8qA290g-94">
          <mxGeometry y="30" width="140" height="30" as="geometry" />
        </mxCell>
        <mxCell id="3bPheQjJl3Zlm8qA290g-96" value="+&amp;nbsp;show_notes()" style="text;strokeColor=none;fillColor=none;align=left;verticalAlign=middle;spacingLeft=4;spacingRight=4;overflow=hidden;points=[[0,0.5],[1,0.5]];portConstraint=eastwest;rotatable=0;whiteSpace=wrap;html=1;" vertex="1" parent="3bPheQjJl3Zlm8qA290g-94">
          <mxGeometry y="60" width="140" height="30" as="geometry" />
        </mxCell>
        <mxCell id="3bPheQjJl3Zlm8qA290g-97" value="+&amp;nbsp;edit_note()" style="text;strokeColor=none;fillColor=none;align=left;verticalAlign=middle;spacingLeft=4;spacingRight=4;overflow=hidden;points=[[0,0.5],[1,0.5]];portConstraint=eastwest;rotatable=0;whiteSpace=wrap;html=1;" vertex="1" parent="3bPheQjJl3Zlm8qA290g-94">
          <mxGeometry y="90" width="140" height="30" as="geometry" />
        </mxCell>
        <mxCell id="3bPheQjJl3Zlm8qA290g-100" value="+&amp;nbsp;add_tags()" style="text;strokeColor=none;fillColor=none;align=left;verticalAlign=middle;spacingLeft=4;spacingRight=4;overflow=hidden;points=[[0,0.5],[1,0.5]];portConstraint=eastwest;rotatable=0;whiteSpace=wrap;html=1;" vertex="1" parent="3bPheQjJl3Zlm8qA290g-94">
          <mxGeometry y="120" width="140" height="30" as="geometry" />
        </mxCell>
        <mxCell id="3bPheQjJl3Zlm8qA290g-102" value="+&amp;nbsp;find_by_tag()" style="text;strokeColor=none;fillColor=none;align=left;verticalAlign=middle;spacingLeft=4;spacingRight=4;overflow=hidden;points=[[0,0.5],[1,0.5]];portConstraint=eastwest;rotatable=0;whiteSpace=wrap;html=1;" vertex="1" parent="3bPheQjJl3Zlm8qA290g-94">
          <mxGeometry y="150" width="140" height="30" as="geometry" />
        </mxCell>
        <mxCell id="3bPheQjJl3Zlm8qA290g-101" value="+&amp;nbsp;del_note()" style="text;strokeColor=none;fillColor=none;align=left;verticalAlign=middle;spacingLeft=4;spacingRight=4;overflow=hidden;points=[[0,0.5],[1,0.5]];portConstraint=eastwest;rotatable=0;whiteSpace=wrap;html=1;" vertex="1" parent="3bPheQjJl3Zlm8qA290g-94">
          <mxGeometry y="180" width="140" height="30" as="geometry" />
        </mxCell>
        <mxCell id="3bPheQjJl3Zlm8qA290g-103" value="-&amp;nbsp;save_to_file()" style="text;strokeColor=none;fillColor=none;align=left;verticalAlign=middle;spacingLeft=4;spacingRight=4;overflow=hidden;points=[[0,0.5],[1,0.5]];portConstraint=eastwest;rotatable=0;whiteSpace=wrap;html=1;" vertex="1" parent="3bPheQjJl3Zlm8qA290g-94">
          <mxGeometry y="210" width="140" height="30" as="geometry" />
        </mxCell>
        <mxCell id="3bPheQjJl3Zlm8qA290g-98" value="" style="endArrow=none;html=1;rounded=0;entryX=0.286;entryY=0;entryDx=0;entryDy=0;entryPerimeter=0;" edge="1" parent="1" target="3bPheQjJl3Zlm8qA290g-94">
          <mxGeometry width="50" height="50" relative="1" as="geometry">
            <mxPoint x="200" y="210" as="sourcePoint" />
            <mxPoint x="260" y="250" as="targetPoint" />
          </mxGeometry>
        </mxCell>
        <mxCell id="3bPheQjJl3Zlm8qA290g-99" value="" style="endArrow=none;html=1;rounded=0;" edge="1" parent="1">
          <mxGeometry width="50" height="50" relative="1" as="geometry">
            <mxPoint x="200" y="210" as="sourcePoint" />
            <mxPoint x="110" y="210" as="targetPoint" />
          </mxGeometry>
        </mxCell>
        <mxCell id="3bPheQjJl3Zlm8qA290g-104" value="Note" style="swimlane;fontStyle=0;childLayout=stackLayout;horizontal=1;startSize=30;horizontalStack=0;resizeParent=1;resizeParentMax=0;resizeLast=0;collapsible=1;marginBottom=0;whiteSpace=wrap;html=1;" vertex="1" parent="1">
          <mxGeometry x="330" y="250" width="140" height="210" as="geometry" />
        </mxCell>
        <mxCell id="3bPheQjJl3Zlm8qA290g-105" value="+&amp;nbsp;note" style="text;strokeColor=none;fillColor=none;align=left;verticalAlign=middle;spacingLeft=4;spacingRight=4;overflow=hidden;points=[[0,0.5],[1,0.5]];portConstraint=eastwest;rotatable=0;whiteSpace=wrap;html=1;" vertex="1" parent="3bPheQjJl3Zlm8qA290g-104">
          <mxGeometry y="30" width="140" height="30" as="geometry" />
        </mxCell>
        <mxCell id="3bPheQjJl3Zlm8qA290g-108" value="" style="endArrow=none;html=1;rounded=0;entryX=0.988;entryY=1.008;entryDx=0;entryDy=0;entryPerimeter=0;" edge="1" parent="3bPheQjJl3Zlm8qA290g-104" target="3bPheQjJl3Zlm8qA290g-106">
          <mxGeometry width="50" height="50" relative="1" as="geometry">
            <mxPoint y="90" as="sourcePoint" />
            <mxPoint x="50" y="40" as="targetPoint" />
          </mxGeometry>
        </mxCell>
        <mxCell id="3bPheQjJl3Zlm8qA290g-106" value="+ id" style="text;strokeColor=none;fillColor=none;align=left;verticalAlign=middle;spacingLeft=4;spacingRight=4;overflow=hidden;points=[[0,0.5],[1,0.5]];portConstraint=eastwest;rotatable=0;whiteSpace=wrap;html=1;" vertex="1" parent="3bPheQjJl3Zlm8qA290g-104">
          <mxGeometry y="60" width="140" height="30" as="geometry" />
        </mxCell>
        <mxCell id="3bPheQjJl3Zlm8qA290g-107" value="+&amp;nbsp;add_note_tags()" style="text;strokeColor=none;fillColor=none;align=left;verticalAlign=middle;spacingLeft=4;spacingRight=4;overflow=hidden;points=[[0,0.5],[1,0.5]];portConstraint=eastwest;rotatable=0;whiteSpace=wrap;html=1;" vertex="1" parent="3bPheQjJl3Zlm8qA290g-104">
          <mxGeometry y="90" width="140" height="30" as="geometry" />
        </mxCell>
        <mxCell id="3bPheQjJl3Zlm8qA290g-110" value="+&amp;nbsp;edit_note()" style="text;strokeColor=none;fillColor=none;align=left;verticalAlign=middle;spacingLeft=4;spacingRight=4;overflow=hidden;points=[[0,0.5],[1,0.5]];portConstraint=eastwest;rotatable=0;whiteSpace=wrap;html=1;" vertex="1" parent="3bPheQjJl3Zlm8qA290g-104">
          <mxGeometry y="120" width="140" height="30" as="geometry" />
        </mxCell>
        <mxCell id="3bPheQjJl3Zlm8qA290g-111" value="+&amp;nbsp;del_tag()" style="text;strokeColor=none;fillColor=none;align=left;verticalAlign=middle;spacingLeft=4;spacingRight=4;overflow=hidden;points=[[0,0.5],[1,0.5]];portConstraint=eastwest;rotatable=0;whiteSpace=wrap;html=1;" vertex="1" parent="3bPheQjJl3Zlm8qA290g-104">
          <mxGeometry y="150" width="140" height="30" as="geometry" />
        </mxCell>
        <mxCell id="3bPheQjJl3Zlm8qA290g-109" value="+ show_tags()" style="text;strokeColor=none;fillColor=none;align=left;verticalAlign=middle;spacingLeft=4;spacingRight=4;overflow=hidden;points=[[0,0.5],[1,0.5]];portConstraint=eastwest;rotatable=0;whiteSpace=wrap;html=1;" vertex="1" parent="3bPheQjJl3Zlm8qA290g-104">
          <mxGeometry y="180" width="140" height="30" as="geometry" />
        </mxCell>
        <mxCell id="3bPheQjJl3Zlm8qA290g-112" style="edgeStyle=orthogonalEdgeStyle;rounded=0;orthogonalLoop=1;jettySize=auto;html=1;entryX=1;entryY=0.5;entryDx=0;entryDy=0;" edge="1" parent="1" source="3bPheQjJl3Zlm8qA290g-106" target="3bPheQjJl3Zlm8qA290g-95">
          <mxGeometry relative="1" as="geometry" />
        </mxCell>
      </root>
    </mxGraphModel>
  </diagram>
</mxfile>
